REM DIRINDEX 1\2\6,1\2\7,1\2\8,1\2\9,1\3\10,1\3\11,1\4\12,1\4\13,1\4\14,1\5\15,1\5\16,1\5\17
REM DIRNAME folder01,folder02,folder03,folder04,folder05,folder06,folder07,folder08,folder09,folder10,folder11,folder12,folder13,folder14,folder15,folder16,folder17
TITLE ""
FILE "1400_2_sec05_0449_0466.mp3" MP3
  TRACK 01 AUDIO
    TITLE "0:"
    INDEX 01 00:00:00
  TRACK 02 AUDIO
    TITLE "13:cjc029_2482"
    INDEX 01 00:00:17
  TRACK 03 AUDIO
    TITLE "0:"
    INDEX 01 00:01:19
  TRACK 04 AUDIO
    TITLE "14:cjc029_2483"
    INDEX 01 00:01:26
  TRACK 05 AUDIO
    TITLE "0:"
    INDEX 01 00:06:24
  TRACK 06 AUDIO
    TITLE "13:cjc029_2484"
    INDEX 01 00:07:07
  TRACK 07 AUDIO
    TITLE "0:"
    INDEX 01 00:08:15
  TRACK 08 AUDIO
    TITLE "14:cjc029_2485"
    INDEX 01 00:08:21
  TRACK 09 AUDIO
    TITLE "0:"
    INDEX 01 00:10:61
  TRACK 10 AUDIO
    TITLE "13:cjc029_2486"
    INDEX 01 00:11:42
  TRACK 11 AUDIO
    TITLE "0:"
    INDEX 01 00:13:00
  TRACK 12 AUDIO
    TITLE "14:cjc029_2487"
    INDEX 01 00:13:08
  TRACK 13 AUDIO
    TITLE "0:"
    INDEX 01 00:14:27
  TRACK 14 AUDIO
    TITLE "13:cjc029_2488"
    INDEX 01 00:15:09
  TRACK 15 AUDIO
    TITLE "0:"
    INDEX 01 00:16:10
  TRACK 16 AUDIO
    TITLE "14:cjc029_2489"
    INDEX 01 00:16:14
  TRACK 17 AUDIO
    TITLE "0:"
    INDEX 01 00:18:37
  TRACK 18 AUDIO
    TITLE "13:cjc029_2490"
    INDEX 01 00:19:16
  TRACK 19 AUDIO
    TITLE "0:"
    INDEX 01 00:20:28
  TRACK 20 AUDIO
    TITLE "14:cjc029_2491"
    INDEX 01 00:20:32
  TRACK 21 AUDIO
    TITLE "0:"
    INDEX 01 00:22:27
  TRACK 22 AUDIO
    TITLE "13:cjc029_2492"
    INDEX 01 00:23:10
  TRACK 23 AUDIO
    TITLE "0:"
    INDEX 01 00:24:12
  TRACK 24 AUDIO
    TITLE "14:cjc029_2493"
    INDEX 01 00:24:20
  TRACK 25 AUDIO
    TITLE "0:"
    INDEX 01 00:26:24
  TRACK 26 AUDIO
    TITLE "13:cjc029_2494"
    INDEX 01 00:27:06
  TRACK 27 AUDIO
    TITLE "0:"
    INDEX 01 00:28:15
  TRACK 28 AUDIO
    TITLE "14:cjc029_2495"
    INDEX 01 00:28:17
  TRACK 29 AUDIO
    TITLE "0:"
    INDEX 01 00:31:45
  TRACK 30 AUDIO
    TITLE "13:cjc029_2496"
    INDEX 01 00:32:29
  TRACK 31 AUDIO
    TITLE "0:"
    INDEX 01 00:33:54
  TRACK 32 AUDIO
    TITLE "14:cjc029_2497"
    INDEX 01 00:33:56
  TRACK 33 AUDIO
    TITLE "0:"
    INDEX 01 00:36:09
  TRACK 34 AUDIO
    TITLE "13:cjc029_2498"
    INDEX 01 00:36:66
  TRACK 35 AUDIO
    TITLE "0:"
    INDEX 01 00:38:00
  TRACK 36 AUDIO
    TITLE "14:cjc029_2499"
    INDEX 01 00:38:08
  TRACK 37 AUDIO
    TITLE "0:"
    INDEX 01 00:41:18
  TRACK 38 AUDIO
    TITLE "13:cjc029_2500"
    INDEX 01 00:42:02
  TRACK 39 AUDIO
    TITLE "0:"
    INDEX 01 00:43:15
  TRACK 40 AUDIO
    TITLE "14:cjc029_2501"
    INDEX 01 00:43:19
  TRACK 41 AUDIO
    TITLE "0:"
    INDEX 01 00:46:00
  TRACK 42 AUDIO
    TITLE "13:cjc029_2502"
    INDEX 01 00:46:58
  TRACK 43 AUDIO
    TITLE "0:"
    INDEX 01 00:47:66
  TRACK 44 AUDIO
    TITLE "14:cjc029_2503"
    INDEX 01 00:47:74
  TRACK 45 AUDIO
    TITLE "0:"
    INDEX 01 00:50:09
  TRACK 46 AUDIO
    TITLE "13:cjc029_2504"
    INDEX 01 00:50:66
  TRACK 47 AUDIO
    TITLE "0:"
    INDEX 01 00:52:00
  TRACK 48 AUDIO
    TITLE "14:cjc029_2505"
    INDEX 01 00:52:06
  TRACK 49 AUDIO
    TITLE "0:"
    INDEX 01 00:52:69
  TRACK 50 AUDIO
    TITLE "13:cjc029_2506"
    INDEX 01 00:53:51
  TRACK 51 AUDIO
    TITLE "0:"
    INDEX 01 00:54:66
  TRACK 52 AUDIO
    TITLE "14:cjc029_2507"
    INDEX 01 00:54:70
  TRACK 53 AUDIO
    TITLE "0:"
    INDEX 01 00:57:33
  TRACK 54 AUDIO
    TITLE "13:cjc029_2508"
    INDEX 01 00:58:13
  TRACK 55 AUDIO
    TITLE "0:"
    INDEX 01 00:59:38
  TRACK 56 AUDIO
    TITLE "14:cjc029_2509"
    INDEX 01 00:59:41
  TRACK 57 AUDIO
    TITLE "0:"
    INDEX 01 01:02:63
  TRACK 58 AUDIO
    TITLE "13:cjc029_2510"
    INDEX 01 01:03:49
  TRACK 59 AUDIO
    TITLE "0:"
    INDEX 01 01:05:09
  TRACK 60 AUDIO
    TITLE "14:cjc029_2511"
    INDEX 01 01:05:15
  TRACK 61 AUDIO
    TITLE "0:"
    INDEX 01 01:08:27
  TRACK 62 AUDIO
    TITLE "13:cjc029_2512"
    INDEX 01 01:09:09
  TRACK 63 AUDIO
    TITLE "0:"
    INDEX 01 01:10:18
  TRACK 64 AUDIO
    TITLE "14:cjc029_2513"
    INDEX 01 01:10:26
  TRACK 65 AUDIO
    TITLE "0:"
    INDEX 01 01:11:45
  TRACK 66 AUDIO
    TITLE "13:cjc029_2514"
    INDEX 01 01:12:26
  TRACK 67 AUDIO
    TITLE "0:"
    INDEX 01 01:13:36
  TRACK 68 AUDIO
    TITLE "14:cjc029_2515"
    INDEX 01 01:13:40
  TRACK 69 AUDIO
    TITLE "0:"
    INDEX 01 01:15:66
  TRACK 70 AUDIO
    TITLE "13:cjc029_2516"
    INDEX 01 01:16:50
  TRACK 71 AUDIO
    TITLE "0:"
    INDEX 01 01:18:04
  TRACK 72 AUDIO
    TITLE "14:cjc029_2517"
    INDEX 01 01:18:09
  TRACK 73 AUDIO
    TITLE "0:"
    INDEX 01 01:20:46
